<svg height='300px' width='300px'  fill="#FFFFFF" xmlns="http://www.w3.org/2000/svg" xmlns:xlink="http://www.w3.org/1999/xlink" version="1.1" x="0px" y="0px" viewBox="0 0 100 100" enable-background="new 0 0 100 100" xml:space="preserve"><g><path fill="none" d="M70.993,47.215c-2.024-1.243-4.104-2.397-6.492-2.836c-0.391-0.072-0.753-0.291-1.139-0.408   c-1.35-0.407-2.685-1.023-4.062-1.142c-1.882-0.163-3.798,0.05-5.699,0.115c-0.472,0.016-0.932,0.098-1.171,0.704   c0.339,0.094,0.618,0.142,0.875,0.247c2.289,0.93,4.848,0.604,7.142,1.676c2.215,1.036,4.646,1.607,6.869,2.628   c1.71,0.786,3.328,1.763,5.068,2.531c2.203,0.973,4.261,2.257,6.587,2.994c1.385,0.439,2.707,1.059,4.211,0.977   c0.274-0.015,0.576,0.033,0.827,0.141c1.362,0.58,2.712,0.089,4.063-0.033c0.226-0.021,0.431-0.28,0.721-0.482   c-2.224-0.514-4.357-0.772-6.397-1.548C78.42,51.266,74.617,49.441,70.993,47.215z"></path><path d="M94.956,53.037c-1.221,0.014-2.298,0.05-3.375,0.03c-0.642-0.012-1.283-0.111-1.924-0.176   c-1.199-0.121-2.447-0.074-3.585-0.405c-2.417-0.701-5.028-0.897-7.124-2.527c-0.247-0.193-0.594-0.254-0.881-0.401   c-2.332-1.193-4.67-2.376-6.988-3.597c-1.607-0.845-3.103-1.985-4.795-2.561c-2.31-0.786-4.708-1.529-7.172-1.586   c-3.226-0.075-6.466-0.19-9.679,0.395c-1.268,0.231-2.571,0.266-3.858,0.387c-0.362,0.034-0.736,0.008-1.085,0.089   c-2.667,0.624-5.361,1.157-7.984,1.93c-4.775,1.407-9.49,3.027-13.898,5.368c-2.301,1.223-4.723,1.215-7.1,0.925   c-2.778-0.339-5.191-1.678-7.13-3.792c-1.339-1.46-1.574-3.031-0.585-4.742c0.203-0.349,0.412-0.703,0.554-1.079   c0.371-0.99,1.254-1.538,1.918-2.272c0.154-0.171,0.402-0.338,0.62-0.356c1.412-0.118,2.827-0.199,4.158,0.459   c0.578,0.286,0.588,0.796,0.591,1.344c0.003,0.544-0.272,0.854-0.749,0.949c-0.546,0.109-1.109,0.143-1.666,0.182   c-0.453,0.033-0.905,0.035-1.108,0.553c-0.347,0.881,0.181,1.77,1.14,1.849c0.603,0.049,1.217,0.047,1.82-0.001   c0.92-0.074,1.718-0.712,1.892-1.453c0.13-0.55,0.291-1.098,0.358-1.657c0.214-1.786-0.378-3.446-2.483-3.721   c-0.432-0.056-0.873-0.177-1.269-0.357c-1.455-0.66-2.79-0.429-4.151,0.332c-2.915,1.63-4.619,3.934-4.396,7.408   c0.02,0.323-0.027,0.651,0.012,0.971c0.044,0.355,0.099,0.724,0.239,1.049c0.638,1.477,1.369,2.838,2.765,3.837   c1.381,0.989,2.925,1.512,4.468,2.056c1.702,0.601,3.505,0.412,5.278,0.424c1.569,0.011,3.078-0.408,4.436-1.058   c4.313-2.066,8.708-3.899,13.29-5.276c0.62-0.186,1.226-0.424,1.853-0.574c2.27-0.544,4.545-1.067,6.822-1.584   c0.468-0.106,0.948-0.204,1.425-0.22c2.226-0.077,4.425-0.003,6.588,0.687c2.101,0.671,4.261,1.155,6.375,1.789   c1.617,0.485,3.206,1.067,4.802,1.622c0.455,0.159,0.9,0.353,1.332,0.568c1.255,0.625,2.491,1.288,3.752,1.9   c1.084,0.525,2.214,0.956,3.283,1.507c2.005,1.033,3.995,2.062,6.157,2.777c1.763,0.583,3.56,0.956,5.369,1.23   c1.306,0.198,2.669,0.09,4,0.008c0.628-0.038,1.256-0.294,1.854-0.528c0.548-0.214,1.032-0.607,1.588-0.785   c1.22-0.39,2.461-0.723,3.707-1.019C95.043,53.786,95.05,53.442,94.956,53.037z M88.071,54.809c-1.35,0.123-2.7,0.613-4.063,0.033   c-0.252-0.107-0.554-0.156-0.827-0.141c-1.503,0.082-2.826-0.538-4.211-0.977c-2.326-0.737-4.384-2.021-6.587-2.994   c-1.74-0.768-3.358-1.745-5.068-2.531c-2.223-1.022-4.654-1.593-6.869-2.628c-2.295-1.072-4.854-0.746-7.142-1.676   c-0.257-0.104-0.536-0.153-0.875-0.247c0.239-0.606,0.7-0.688,1.171-0.704c1.901-0.065,3.817-0.278,5.699-0.115   c1.377,0.119,2.712,0.735,4.062,1.142c0.386,0.116,0.747,0.336,1.139,0.408c2.388,0.439,4.469,1.593,6.492,2.836   c3.624,2.226,7.428,4.051,11.402,5.564c2.04,0.776,4.173,1.034,6.397,1.548C88.501,54.529,88.297,54.788,88.071,54.809z"></path><path d="M69.131,59.565c-0.328-0.074-0.554-0.131-0.783-0.175c-1.145-0.224-2.312-0.403-3.306-1.063   c-0.533-0.354-0.978-0.837-1.498-1.213c-0.685-0.495-1.462-0.876-2.098-1.424c-2.587-2.226-5.233-4.298-8.88-4.34   c-0.04,0-0.082-0.004-0.12-0.017c-1.858-0.637-3.687-0.272-5.473,0.26c-1.34,0.399-2.681,0.876-3.915,1.521   c-0.825,0.431-1.825,0.71-2.335,1.642c-1.024,1.87-1.75,3.811-1.43,5.993c0.057,0.388,0.198,0.792,0.403,1.126   c1.336,2.172,3.07,3.921,5.691,4.32c2.012,0.306,4.083,0.61,5.928-0.803c1.373-1.052,2.564-2.131,2.171-4.09   c-0.015-0.078-0.002-0.161-0.003-0.242c-0.02-1.173-0.57-2.012-1.643-2.46c-1.297-0.541-2.595-0.744-3.979-0.151   c-1.405,0.602-1.531,0.745-1.033,2.273c1.018,0.408,1.905,0.508,2.782-0.185c0.449-0.355,1.12-0.305,1.42,0.174   c0.318,0.508,0.696,1.326,0.495,1.746c-0.597,1.248-1.691,2.081-3.093,2.372c-0.818,0.17-1.57-0.234-2.353-0.362   c-1.139-0.187-2.02-0.801-2.923-1.393c-0.699-0.458-1.06-1.174-1.262-2.001c-0.223-0.915-0.19-1.78-0.015-2.709   c0.329-1.751,1.157-3.089,2.811-3.759c1.334-0.539,2.74-0.899,4.109-1.353c2.212-0.734,4.296-0.416,6.266,0.767   c1.16,0.696,2.293,1.436,3.452,2.134c1.123,0.676,2.402,1.167,3.367,2.017C63.601,59.681,67.007,60.17,69.131,59.565z"></path><path d="M81.104,58.054c-0.398-0.015-0.8-0.074-1.191-0.154c-0.941-0.193-1.868-0.456-2.814-0.611   c-2.07-0.338-4.127-0.673-5.926-1.882c-0.495-0.332-1.09-0.519-1.649-0.753c-1.708-0.713-3.435-1.382-5.127-2.131   c-2.693-1.192-5.204-2.753-8.093-3.558c-2.624-0.731-5.21-1.384-7.962-1.189c-1.249,0.088-2.513,0.067-3.765,0.007   c-2.676-0.128-5.199,0.645-7.716,1.337c-2.862,0.786-5.46,2.191-7.849,3.953c-0.412,0.303-0.775,0.699-1.074,1.115   c-0.121,0.167-0.114,0.591,0.016,0.739c0.266,0.304,0.524,0.058,0.819-0.138c1.537-1.019,3.014-2.202,4.685-2.928   c2.171-0.943,4.49-1.567,6.778-2.214c1.034-0.293,2.145-0.407,3.225-0.432c2.51-0.057,5.022-0.012,7.533-0.004   c0.283,0.001,0.583-0.028,0.845,0.053c2.888,0.887,5.885,1.442,8.568,2.947c1.481,0.831,3.019,1.566,4.56,2.284   c0.796,0.372,1.681,0.553,2.477,0.923c1.463,0.679,2.886,1.441,4.333,2.152c0.25,0.123,0.534,0.197,0.811,0.242   c1.786,0.291,3.465,1.125,5.322,1.054c0.039-0.002,0.079,0.018,0.118,0.027c2.505,0.529,4.916-0.207,7.382-0.643   c-0.22-0.035-0.439-0.094-0.66-0.101C83.533,58.113,82.317,58.099,81.104,58.054z"></path><path d="M78.806,34.26c0.331-0.16,0.811-0.281,1.12-0.159c0.565,0.224,1.053,0.642,1.577,0.982   c-0.462,0.655-0.964,0.834-1.571,0.815c-0.445-0.014-0.89,0.01-1.336,0.016c-0.604,0.009-0.971,0.297-1.116,0.957   c0.524,0.084,1.015,0.162,1.627,0.261c-0.621,0.557-1.173,0.97-1.61,1.482c-0.191,0.222-0.306,0.74-0.177,0.958   c0.254,0.427,0.644,0.088,0.939-0.093c0.47-0.289,0.92-0.612,1.475-0.986c0.063,0.303,0.092,0.447,0.122,0.591   c0.161,0.749,0.488,1.125,0.946,1.008c0.699-0.177,0.331-0.701,0.298-1.096c-0.096-1.141-0.119-2.232,1.377-2.56   c0.415,0.74,0.589,1.48,0.038,2.304c-0.236,0.353-0.342,0.819-0.41,1.248c-0.059,0.374,0.084,0.82,0.538,0.788   c0.547-0.038,0.662,0.333,0.902,0.643c0.157,0.204,0.394,0.345,0.595,0.513c0.177-0.238,0.374-0.464,0.521-0.719   c0.07-0.123,0.045-0.302,0.068-0.494c0.419,0.169,0.656,0.828,1.156,0.375c0.473-0.427,0.247-0.86-0.083-1.281   c-0.296-0.379-0.512-0.827-0.839-1.173c-0.569-0.604-0.684-1.32-0.748-2.237c0.309,0.212,0.49,0.355,0.687,0.468   c0.468,0.266,1.125,0.407,1.369,0.805c0.262,0.427,0.102,1.097,0.203,1.647c0.034,0.181,0.321,0.459,0.467,0.444   c0.229-0.024,0.525-0.211,0.633-0.414c0.139-0.26,0.12-0.604,0.173-0.943c0.217,0.045,0.403,0.147,0.524,0.096   c0.301-0.128,0.573-0.327,0.856-0.497c-0.16-0.257-0.274-0.566-0.491-0.759c-0.287-0.256-0.655-0.422-1.069-0.675   c0.236-0.11,0.337-0.168,0.446-0.205c0.366-0.123,0.721-0.291,0.622-0.751c-0.108-0.505-0.582-0.597-0.965-0.516   c-0.492,0.104-0.948,0.374-1.546,0.625c-0.489-0.244-1.094-0.546-1.957-0.975c1.015-0.507,1.818-0.907,2.684-1.339   c0.565,0.649,1.199,0.72,1.969,0.21c-0.352-0.291-0.644-0.533-1.147-0.949c0.579-0.193,0.98-0.283,1.338-0.46   c0.219-0.109,0.372-0.352,0.554-0.535c-0.209-0.158-0.411-0.439-0.626-0.45c-0.538-0.026-1.082,0.071-1.593,0.116   c0.07-0.517,0.137-1.007,0.233-1.714c-0.459,0.187-0.779,0.218-0.917,0.393c-0.322,0.409-0.735,0.865-0.794,1.341   c-0.159,1.275-1.076,1.522-2.043,1.837c-0.097-0.884-0.062-0.861,0.33-1.46c0.618-0.947,1.205-1.916,1.751-2.906   c0.099-0.18,0.024-0.614-0.126-0.73c-0.15-0.116-0.549-0.062-0.741,0.066c-0.254,0.168-0.417,0.477-0.614,0.73   c-0.201,0.259-0.394,0.525-0.618,0.824c-0.439-0.718,0.066-1.639-0.884-2.074c-0.724,0.683-0.355,1.69-0.739,2.581   c-0.395-0.318-0.674-0.609-1.012-0.791c-0.25-0.135-0.67-0.271-0.849-0.154c-0.401,0.261-0.185,0.691,0.067,0.941   c0.564,0.557,1.185,1.055,1.87,1.653c0,0.477,0,1.106,0,1.846c-0.659-0.25-1.329-0.457-1.468-1.053   c-0.136-0.581-0.391-1.012-0.725-1.47c-0.253-0.348-0.323-0.937-0.913-0.732c-0.535,0.186-0.422,0.706-0.363,1.154   c0.007,0.055-0.073,0.12-0.137,0.217c-0.258-0.062-0.529-0.177-0.801-0.178c-0.209,0-0.518,0.086-0.601,0.235   c-0.082,0.148,0.009,0.457,0.121,0.633c0.159,0.247,0.409,0.436,0.624,0.653c-0.342,0.244-0.623,0.444-0.958,0.683   C77.595,34.504,78.123,34.591,78.806,34.26z"></path><path d="M23.071,65.746c-0.221-0.179-0.535-0.245-0.91-0.403c0.242-0.181,0.408-0.249,0.482-0.373   c0.128-0.212,0.199-0.46,0.293-0.693c-0.249-0.078-0.494-0.193-0.749-0.221c-0.138-0.015-0.301,0.103-0.437,0.186   c-1.279,0.782-2.372,0.25-3.496-0.455c0.954-1.176,1.81-2.356,3.567-2.076c0.433,0.069,0.961,0.009,1.33-0.661   c-0.694-0.171-1.289-0.319-1.95-0.482c0.304-0.649,0.591-1.264,0.879-1.879c-0.082-0.078-0.164-0.156-0.246-0.235   c-0.541,0.265-1.083,0.53-1.649,0.808c-0.292-0.346-0.586-0.695-1.071-1.269c-0.107,0.564-0.247,0.865-0.204,1.138   c0.278,1.747,0.205,1.94-1.329,2.921c-0.558-0.952-0.64-1.877,0.041-2.807c0.118-0.16,0.242-0.344,0.273-0.531   c0.071-0.428-0.067-0.693-0.585-0.664c-1.011,0.058-1.266-0.144-1.572-1.066c-0.067-0.202-0.243-0.369-0.382-0.571   c-0.959,0.474-0.347,1.38-0.687,1.994c-0.351-0.035-0.716-0.072-1.173-0.117c-0.056,0.908,0.605,1.312,1.073,1.55   c1.364,0.694,1.36,1.943,1.669,3.22c-0.808-0.085-1.37-0.137-1.719-0.952c-0.259-0.606-0.812-1.171-1.645-1.406   c-0.037,0.301-0.121,0.537-0.076,0.745c0.05,0.233,0.217,0.44,0.364,0.715c-2.081-0.303-2.081-0.303-2.644,0.274   c0.516,0.261,1.023,0.517,1.553,0.785c-0.304,0.387-0.521,0.661-0.737,0.936c0.678,0.528,0.745,0.617,1.372,0.146   c1.024-0.772,1.833-0.234,2.87,0.218c-0.943,1.004-1.677,2.012-3.126,1.994c-0.484-0.006-1.204-0.207-1.248,0.538   c-0.015,0.251,0.635,0.542,1.029,0.853c-0.21,1.084-0.21,1.084,1.844,1.704c0.278-0.795,0.418-1.69,0.876-2.371   c0.461-0.687,1.239-1.161,1.931-1.777c0.274,0.941,0.523,1.792,0.774,2.652c-0.085,0.104-0.15,0.205-0.235,0.283   c-0.603,0.545-0.796,1.276-0.845,2.034c-0.013,0.206,0.243,0.542,0.446,0.612c0.144,0.049,0.465-0.209,0.602-0.404   c0.173-0.246,0.239-0.566,0.351-0.855c0.076-0.005,0.153-0.01,0.229-0.016c0.139,0.398,0.31,0.789,0.407,1.197   c0.096,0.4,0.285,0.764,0.698,0.656c0.275-0.072,0.534-0.415,0.686-0.698c0.233-0.435,0.367-0.924,0.588-1.508   c-1.473-0.775-1.825-2.203-2.016-3.776c1.532,0.154,1.557,1.806,2.728,2.53c0.159-0.52,0.284-0.928,0.402-1.313   c0.406,0.057,0.782,0.199,1.114,0.13c0.254-0.053,0.553-0.336,0.639-0.584C23.507,66.24,23.263,65.901,23.071,65.746z"></path><path d="M34.634,32.271c0.706,0.346,1.403,0.712,2.216,1.126c-0.427,0.658-0.743,1.166-1.08,1.66   c-0.406,0.594-0.411,0.974,0.01,1.24c0.411,0.259,0.944,0.139,1.257-0.331c0.288-0.433,0.53-0.897,0.916-1.559   c0.302,0.645,0.549,1.108,0.739,1.594c0.208,0.529,0.508,1.055,1.117,0.833c0.676-0.245,0.233-0.845,0.12-1.258   c-0.152-0.553-0.426-1.072-0.678-1.679c0.278,0,0.397-0.025,0.5,0.004c0.691,0.195,1.369,0.459,2.071,0.572   c0.273,0.044,0.599-0.244,0.901-0.381c-0.13-0.268-0.207-0.585-0.403-0.789c-0.183-0.191-0.48-0.305-0.748-0.376   c-0.691-0.182-1.394-0.321-2.208-0.503c0.394-0.679,0.778-1.287,1.104-1.924c0.183-0.359,0.333-0.803-0.163-1.055   c-0.408-0.207-0.675,0.07-0.907,0.383c-0.323,0.438-0.66,0.866-1.142,1.496c-0.072-0.56-0.081-0.872-0.158-1.165   c-0.123-0.463-0.247-0.935-0.454-1.365c-0.251-0.522-0.648-0.501-1.021-0.209c0.153,1.154,0.298,2.239,0.455,3.423   c-1.183-0.502-2.24-0.95-3.32-1.409C33.697,31.656,33.826,31.875,34.634,32.271z"></path><path d="M72.201,67.509c-0.16-0.086-0.401-0.002-0.598-0.039c-0.414-0.079-0.822-0.188-1.357-0.314   c0.265-0.333,0.4-0.525,0.557-0.696c0.3-0.328,0.626-0.634,0.916-0.97c0.328-0.38,0.421-0.828,0.028-1.193   c-0.431-0.399-0.717,0.004-1.007,0.286c-0.365,0.355-0.739,0.699-1.281,1.21c-0.145-0.891-0.212-1.53-0.368-2.146   c-0.057-0.226-0.313-0.538-0.502-0.555c-0.197-0.018-0.563,0.241-0.605,0.434c-0.099,0.457-0.095,0.951-0.051,1.422   c0.05,0.53,0.19,1.052,0.288,1.558c-0.867,0-1.585-0.013-2.302,0.005c-0.375,0.009-0.836,0.098-0.744,0.562   c0.045,0.23,0.488,0.431,0.789,0.545c0.294,0.111,0.64,0.073,0.955,0.139c0.263,0.055,0.515,0.164,0.938,0.304   c-0.374,0.736-0.674,1.3-0.948,1.877c-0.18,0.38-0.11,0.789,0.286,0.911c0.214,0.066,0.597-0.137,0.786-0.332   c0.349-0.361,0.611-0.807,0.99-1.329c0.138,0.31,0.219,0.442,0.256,0.585c0.149,0.585,0.267,1.179,0.429,1.761   c0.149,0.533,0.664,0.916,1.064,0.786c0.578-0.189,0.501-0.64,0.388-1.099c-0.19-0.769-0.367-1.542-0.567-2.391   c0.604,0,1.122,0.02,1.638-0.005c0.44-0.022,0.876-0.215,0.778-0.706C72.909,67.871,72.49,67.665,72.201,67.509z"></path></g></svg>